HIERARCHY
ROOT hip
{
	OFFSET 0.000000 0.000000 0.000000 
	CHANNELS 6 Xposition Yposition Zposition Zrotation Yrotation Xrotation
	JOINT abdomen
	{
		OFFSET 0.000000 0.161626 -0.005715 
		CHANNELS 3 Zrotation Xrotation Yrotation
		JOINT chest
		{
			OFFSET 0.000000 0.091440 -0.003810 
			CHANNELS 3 Zrotation Xrotation Yrotation
			JOINT neck
			{
				OFFSET 0.000000 0.173355 -0.017145 
				CHANNELS 3 Zrotation Xrotation Yrotation
				JOINT head
				{
					OFFSET -0.001905 0.055245 0.009525 
					CHANNELS 3 Zrotation Xrotation Yrotation
					JOINT leftEye
					{
						OFFSET 0.032385 0.062865 0.062865 
						CHANNELS 3 Zrotation Xrotation Yrotation
						End Site
						{
							OFFSET 0.007812 0.000000 0.000000 
						}
					}
					JOINT rightEye
					{
						OFFSET -0.028575 0.062865 0.062865 
						CHANNELS 3 Zrotation Xrotation Yrotation
						End Site
						{
							OFFSET 0.007812 0.000000 0.000000 
						}
					}
				}
			}
			JOINT rCollar
			{
				OFFSET -0.020955 0.150495 -0.038100 
				CHANNELS 3 Zrotation Xrotation Yrotation
				JOINT rShldr
				{
					OFFSET -0.068580 -0.015240 0.011430 
					CHANNELS 3 Zrotation Xrotation Yrotation
					JOINT rForeArm
					{
						OFFSET -0.220111 -0.013371 0.003810 
						CHANNELS 3 Zrotation Xrotation Yrotation
						JOINT rHand
						{
							OFFSET -0.176468 0.006041 0.055245 
							CHANNELS 3 Zrotation Xrotation Yrotation
							JOINT rThumb1
							{
								OFFSET -0.009525 -0.003812 0.026670 
								CHANNELS 3 Zrotation Xrotation Yrotation
								JOINT rThumb2
								{
									OFFSET -0.026331 -0.004098 0.026670 
									CHANNELS 3 Zrotation Xrotation Yrotation
									End Site
									{
										OFFSET -0.013927 -0.009235 0.011176 
									}
								}
							}
							JOINT rIndex1
							{
								OFFSET -0.060621 0.007330 0.043815 
								CHANNELS 3 Zrotation Xrotation Yrotation
								JOINT rIndex2
								{
									OFFSET -0.019848 -0.006908 0.012230 
									CHANNELS 3 Zrotation Xrotation Yrotation
									End Site
									{
										OFFSET -0.012697 -0.001834 0.009102 
									}
								}
							}
							JOINT rMid1
							{
								OFFSET -0.064431 0.009235 0.026670 
								CHANNELS 3 Zrotation Xrotation Yrotation
								JOINT rMid2
								{
									OFFSET -0.024232 -0.004610 0.008318 
									CHANNELS 3 Zrotation Xrotation Yrotation
									End Site
									{
										OFFSET -0.019418 -0.002570 0.006542 
									}
								}
							}
							JOINT rRing1
							{
								OFFSET -0.068970 0.004271 0.011850 
								CHANNELS 3 Zrotation Xrotation Yrotation
								JOINT rRing2
								{
									OFFSET -0.020385 -0.006405 -0.000155 
									CHANNELS 3 Zrotation Xrotation Yrotation
									End Site
									{
										OFFSET -0.018269 -0.002297 0.001313 
									}
								}
							}
							JOINT rPinky1
							{
								OFFSET -0.064625 -0.000373 -0.003581 
								CHANNELS 3 Zrotation Xrotation Yrotation
								JOINT rPinky2
								{
									OFFSET -0.014276 -0.005058 -0.005476 
									CHANNELS 3 Zrotation Xrotation Yrotation
									End Site
									{
										OFFSET -0.013221 -0.004044 -0.004744 
									}
								}
							}
						}
					}
				}
			}
			JOINT lCollar
			{
				OFFSET 0.020955 0.150495 -0.038100 
				CHANNELS 3 Zrotation Xrotation Yrotation
				JOINT lShldr
				{
					OFFSET 0.068580 -0.015240 0.011430 
					CHANNELS 3 Zrotation Xrotation Yrotation
					JOINT lForeArm
					{
						OFFSET 0.220111 -0.013371 0.003810 
						CHANNELS 3 Zrotation Xrotation Yrotation
						JOINT lHand
						{
							OFFSET 0.176468 0.006041 0.055245 
							CHANNELS 3 Zrotation Xrotation Yrotation
							JOINT lThumb1
							{
								OFFSET 0.009525 -0.003812 0.026670 
								CHANNELS 3 Zrotation Xrotation Yrotation
								JOINT lThumb2
								{
									OFFSET 0.026331 -0.004098 0.026670 
									CHANNELS 3 Zrotation Xrotation Yrotation
									End Site
									{
										OFFSET 0.013927 -0.009235 0.011176 
									}
								}
							}
							JOINT lIndex1
							{
								OFFSET 0.060621 0.007330 0.043815 
								CHANNELS 3 Zrotation Xrotation Yrotation
								JOINT lIndex2
								{
									OFFSET 0.019848 -0.006908 0.012230 
									CHANNELS 3 Zrotation Xrotation Yrotation
									End Site
									{
										OFFSET 0.012697 -0.001834 0.009102 
									}
								}
							}
							JOINT lMid1
							{
								OFFSET 0.064431 0.009235 0.026670 
								CHANNELS 3 Zrotation Xrotation Yrotation
								JOINT lMid2
								{
									OFFSET 0.024232 -0.004610 0.008318 
									CHANNELS 3 Zrotation Xrotation Yrotation
									End Site
									{
										OFFSET 0.019418 -0.002570 0.006542 
									}
								}
							}
							JOINT lRing1
							{
								OFFSET 0.068970 0.004271 0.011850 
								CHANNELS 3 Zrotation Xrotation Yrotation
								JOINT lRing2
								{
									OFFSET 0.020385 -0.006405 -0.000155 
									CHANNELS 3 Zrotation Xrotation Yrotation
									End Site
									{
										OFFSET 0.018269 -0.002297 0.001313 
									}
								}
							}
							JOINT lPinky1
							{
								OFFSET 0.064625 -0.000373 -0.003581 
								CHANNELS 3 Zrotation Xrotation Yrotation
								JOINT lPinky2
								{
									OFFSET 0.014276 -0.005058 -0.005476 
									CHANNELS 3 Zrotation Xrotation Yrotation
									End Site
									{
										OFFSET 0.013221 -0.004044 -0.004744 
									}
								}
							}
						}
					}
				}
			}
		}
	}
	JOINT rButtock
	{
		OFFSET -0.068580 0.033991 0.009525 
		CHANNELS 3 Zrotation Xrotation Yrotation
		JOINT rThigh
		{
			OFFSET 0.000000 -0.013335 -0.017145 
			CHANNELS 3 Zrotation Xrotation Yrotation
			JOINT rShin
			{
				OFFSET 0.000000 -0.287655 0.005715 
				CHANNELS 3 Zrotation Xrotation Yrotation
				JOINT rFoot
				{
					OFFSET 0.005715 -0.352425 -0.040005 
					CHANNELS 3 Zrotation Xrotation Yrotation
					End Site
					{
						OFFSET -0.008766 -0.028903 0.094555 
					}
				}
			}
		}
	}
	JOINT lButtock
	{
		OFFSET 0.068580 0.033991 0.009525 
		CHANNELS 3 Zrotation Xrotation Yrotation
		JOINT lThigh
		{
			OFFSET 0.000000 -0.013335 -0.017145 
			CHANNELS 3 Zrotation Xrotation Yrotation
			JOINT lShin
			{
				OFFSET 0.000000 -0.287655 0.005715 
				CHANNELS 3 Zrotation Xrotation Yrotation
				JOINT lFoot
				{
					OFFSET -0.005715 -0.352425 -0.040005 
					CHANNELS 3 Zrotation Xrotation Yrotation
					End Site
					{
						OFFSET 0.008766 -0.028903 0.094555 
					}
				}
			}
		}
	}
}
MOTION
Frames: 5
Frame Time: 0.008333
0.706275 0.652429 -0.136005 29.039000 977.804016 -21.615101 12.013500 -0.462110 19.743500 -6.530630 -8.477250 5.178670 -10.538400 20.301100 -11.923500 16.360500 -31.681101 -19.968100 -0.000000 0.000000 0.000000 -0.000000 0.000000 0.000000 -0.000000 -0.000000 0.000000 52.276299 38.403000 38.780701 -25.363400 -21.897699 54.292599 -0.003054 -2.233100 -0.313913 -0.000000 -0.000000 0.000000 -0.000000 -0.000000 0.000000 -0.000000 -0.000000 0.000000 7.730910 5.474880 0.417314 -0.000000 -0.000000 0.000000 2.905540 0.965183 0.102902 -0.000000 -0.000000 0.000000 10.278600 0.731801 0.025912 -0.000000 -0.000000 0.000000 2.221670 -0.733487 -0.208920 -0.000000 -0.000000 0.000000 -79.263702 -6.173140 27.650499 25.256201 -21.656900 -53.869598 0.470538 19.135201 -2.794820 0.000000 0.000000 0.000000 0.000000 0.000000 0.000000 0.000000 0.000000 0.000000 -7.730910 5.474880 -0.417314 0.000000 0.000000 0.000000 -2.905540 0.965183 -0.102902 0.000000 0.000000 0.000000 -10.278600 0.731801 -0.025912 0.000000 0.000000 0.000000 -2.221670 -0.733487 0.208920 -0.000000 0.000000 -0.000000 7.705540 -19.269199 -13.423300 0.058053 28.634800 0.710758 -8.919500 -19.340500 -22.714300 0.000000 0.000000 0.000000 8.799850 -40.661701 -7.143280 0.908889 57.281399 -1.424770 0.845787 -9.273850 1.645380 
0.718178 0.650954 -0.138148 41.225300 979.854980 -33.751999 12.419200 -0.583402 19.334200 -5.957400 -8.878890 5.088440 -10.463200 20.663601 -12.358400 16.587000 -31.690500 -20.805799 -0.000000 0.000000 0.000000 -0.000000 0.000000 0.000000 -0.000000 -0.000000 0.000000 53.071098 36.364700 38.290001 -25.517300 -22.253700 54.848598 -0.011200 -3.020190 -0.424858 0.000000 0.000000 0.000000 0.000000 0.000000 0.000000 0.000000 0.000000 0.000000 7.730910 5.474880 0.417314 0.000000 0.000000 0.000000 2.905540 0.965183 0.102902 0.000000 0.000000 0.000000 10.278600 0.731801 0.025912 0.000000 0.000000 0.000000 2.221670 -0.733487 -0.208920 -0.000000 -0.000000 0.000000 -78.252197 -8.753930 28.930099 25.414600 -22.016001 -54.460201 0.451452 18.748199 -2.734170 0.000000 0.000000 0.000000 0.000000 0.000000 0.000000 0.000000 0.000000 0.000000 -7.730910 5.474880 -0.417314 0.000000 0.000000 0.000000 -2.905540 0.965183 -0.102902 0.000000 0.000000 0.000000 -10.278600 0.731801 -0.025912 0.000000 0.000000 0.000000 -2.221670 -0.733487 0.208920 -0.000000 0.000000 -0.000000 8.337770 -20.320101 -14.552600 0.051796 28.952999 0.643964 -9.438750 -19.469000 -23.847601 0.000000 0.000000 0.000000 9.719680 -39.979000 -5.356160 1.041650 59.594700 -1.532430 0.642181 -8.596890 0.987893 
0.729297 0.649223 -0.139038 55.827301 981.651978 -48.522099 12.279800 -0.804649 19.159901 -5.397500 -9.121800 5.085830 -9.833100 21.229601 -12.962600 16.257099 -32.193802 -22.057699 -0.000000 0.000000 0.000000 -0.000000 0.000000 0.000000 -0.000000 -0.000000 0.000000 54.568699 33.927898 37.272999 -25.720699 -22.738701 55.598499 -0.014577 -3.064550 -0.431302 0.000000 -0.000000 0.000000 0.000000 -0.000000 0.000000 0.000000 -0.000000 0.000000 7.730910 5.474880 0.417314 0.000000 -0.000000 0.000000 2.905540 0.965183 0.102902 0.000000 -0.000000 0.000000 10.278600 0.731801 0.025912 0.000000 -0.000000 0.000000 2.221670 -0.733487 -0.208920 -0.000000 -0.000000 0.000000 -76.755600 -10.595200 30.015200 25.540600 -22.307199 -54.954399 0.447986 18.669701 -2.722030 0.000000 0.000000 0.000000 0.000000 0.000000 0.000000 0.000000 0.000000 0.000000 -7.730910 5.474880 -0.417314 0.000000 0.000000 0.000000 -2.905540 0.965183 -0.102902 0.000000 0.000000 0.000000 -10.278600 0.731801 -0.025912 0.000000 0.000000 0.000000 -2.221670 -0.733487 0.208920 -0.000000 0.000000 -0.000000 8.817840 -21.163500 -14.771500 0.041958 29.168800 0.577184 -10.422800 -19.995300 -25.588699 0.000000 0.000000 0.000000 10.269600 -38.638500 -4.149230 1.154220 61.206600 -1.618860 0.679679 -8.021780 1.279790 
0.739472 0.648219 -0.139209 74.459099 982.981018 -67.471603 11.738600 -1.083520 19.114401 -4.810960 -9.268870 5.136500 -8.840820 21.908800 -13.660700 15.529800 -32.974602 -23.558399 -0.000000 0.000000 0.000000 -0.000000 0.000000 0.000000 -0.000000 -0.000000 0.000000 56.417000 31.214199 35.987099 -25.945601 -23.296499 56.481098 -0.013955 -2.621120 -0.369076 0.000000 -0.000000 -0.000000 0.000000 -0.000000 -0.000000 0.000000 -0.000000 -0.000000 7.730910 5.474880 0.417314 0.000000 -0.000000 -0.000000 2.905540 0.965183 0.102902 0.000000 -0.000000 -0.000000 10.278600 0.731801 0.025912 0.000000 -0.000000 -0.000000 2.221670 -0.733487 -0.208920 -0.000000 -0.000000 0.000000 -74.911003 -12.017500 31.002701 25.641899 -22.547300 -55.348202 0.455287 18.816900 -2.745090 -0.000000 -0.000000 0.000000 -0.000000 -0.000000 0.000000 -0.000000 -0.000000 0.000000 -7.730910 5.474880 -0.417314 -0.000000 -0.000000 0.000000 -2.905540 0.965183 -0.102902 -0.000000 -0.000000 0.000000 -10.278600 0.731801 -0.025912 -0.000000 -0.000000 0.000000 -2.221670 -0.733487 0.208920 -0.000000 0.000000 -0.000000 9.129790 -21.916401 -14.392000 0.027880 29.371599 0.505724 -11.715500 -20.748699 -27.632200 0.000000 0.000000 0.000000 10.480600 -36.736000 -3.483400 1.246680 62.341801 -1.679820 0.770190 -7.451080 1.811070 
0.749091 0.648137 -0.139285 95.298103 983.393982 -88.453903 11.166300 -1.431640 19.112200 -4.251700 -9.342730 5.198650 -7.790930 22.574499 -14.342600 14.628300 -33.772800 -25.065701 -0.000000 0.000000 0.000000 -0.000000 0.000000 0.000000 0.000000 -0.000000 0.000000 58.133701 28.529699 34.969799 -26.149700 -23.824900 57.353001 -0.011964 -2.282820 -0.321488 0.000000 -0.000000 -0.000000 0.000000 -0.000000 -0.000000 0.000000 -0.000000 -0.000000 7.730910 5.474880 0.417314 0.000000 -0.000000 -0.000000 2.905540 0.965183 0.102902 0.000000 -0.000000 -0.000000 10.278600 0.731801 0.025912 0.000000 -0.000000 -0.000000 2.221670 -0.733487 -0.208920 0.000000 -0.000000 0.000000 -72.943100 -13.196700 31.914200 25.737200 -22.777700 -55.712898 0.466979 19.051201 -2.781840 -0.000000 -0.000000 -0.000000 -0.000000 -0.000000 -0.000000 -0.000000 -0.000000 -0.000000 -7.730910 5.474880 -0.417314 -0.000000 -0.000000 -0.000000 -2.905540 0.965183 -0.102902 -0.000000 -0.000000 -0.000000 -10.278600 0.731801 -0.025912 -0.000000 -0.000000 -0.000000 -2.221670 -0.733487 0.208920 -0.000000 0.000000 -0.000000 9.327020 -22.672100 -13.991300 0.012275 29.528999 0.432791 -12.981900 -21.401100 -29.535000 0.000000 0.000000 0.000000 10.597100 -34.514599 -3.188310 1.300380 62.916401 -1.699150 0.843202 -6.884760 2.298170 
